<svg width="220" height="48" viewBox="0 0 220 48" fill="none" xmlns="http://www.w3.org/2000/svg">
<g filter="url(#filter0_dd_702_13)">
<path d="M36.8107 7.64017L25.1834 0.858838C23.2199 -0.286318 20.7802 -0.28624 18.8166 0.858838L7.1894 7.64017C5.22207 8.78743 4 10.927 4 13.2239V26.776C4 29.0729 5.22207 31.2125 7.18932 32.3598L18.8166 39.1411C20.7805 40.2865 23.2201 40.2861 25.1834 39.1411L36.8106 32.3598C38.7779 31.2125 40 29.0729 40 26.776V13.2239C40 10.9271 38.7779 8.78751 36.8107 7.64017ZM36.9099 26.776C36.9099 27.9592 36.2804 29.0613 35.267 29.6522L23.6397 36.4335C22.6282 37.0235 21.3717 37.0235 20.3602 36.4335L8.73292 29.6522C7.71959 29.0612 7.09013 27.9592 7.09013 26.776V13.2239C7.09013 12.0409 7.71959 10.9388 8.733 10.3478L20.3602 3.56649C21.3718 2.97649 22.6287 2.97673 23.6398 3.56649L35.2671 10.3477C36.2804 10.9388 36.9099 12.0408 36.9099 13.2239V26.776Z" fill="#445964"/>
<path d="M80.8107 7.64017L69.1834 0.858838C67.2199 -0.286318 64.7802 -0.28624 62.8166 0.858838L51.1894 7.64017C49.2221 8.78743 48 10.927 48 13.2239V26.776C48 29.0729 49.2221 31.2125 51.1893 32.3598L62.8166 39.1411C64.7805 40.2865 67.2201 40.2861 69.1834 39.1411L80.8106 32.3598C82.7779 31.2125 84 29.0729 84 26.776V13.2239C84 10.9271 82.7779 8.78751 80.8107 7.64017ZM80.9099 26.776C80.9099 27.9592 80.2804 29.0613 79.267 29.6522L67.6397 36.4335C66.6282 37.0235 65.3717 37.0235 64.3602 36.4335L52.7329 29.6522C51.7196 29.0612 51.0901 27.9592 51.0901 26.776V13.2239C51.0901 12.0409 51.7196 10.9388 52.733 10.3478L64.3602 3.56649C65.3718 2.97649 66.6287 2.97673 67.6398 3.56649L79.2671 10.3477C80.2804 10.9388 80.9099 12.0408 80.9099 13.2239V26.776Z" fill="#445964"/>
<path d="M124.811 7.64017L113.183 0.858838C111.22 -0.286318 108.78 -0.28624 106.817 0.858838L95.1894 7.64017C93.2221 8.78743 92 10.927 92 13.2239V26.776C92 29.0729 93.2221 31.2125 95.1893 32.3598L106.817 39.1411C108.78 40.2865 111.22 40.2861 113.183 39.1411L124.811 32.3598C126.778 31.2125 128 29.0729 128 26.776V13.2239C128 10.9271 126.778 8.78751 124.811 7.64017ZM124.91 26.776C124.91 27.9592 124.28 29.0613 123.267 29.6522L111.64 36.4335C110.628 37.0235 109.372 37.0235 108.36 36.4335L96.7329 29.6522C95.7196 29.0612 95.0901 27.9592 95.0901 26.776V13.2239C95.0901 12.0409 95.7196 10.9388 96.733 10.3478L108.36 3.56649C109.372 2.97649 110.629 2.97673 111.64 3.56649L123.267 10.3477C124.28 10.9388 124.91 12.0408 124.91 13.2239V26.776Z" fill="#445964"/>
<path d="M168.811 7.64017L157.183 0.858838C155.22 -0.286318 152.78 -0.28624 150.817 0.858838L139.189 7.64017C137.222 8.78743 136 10.927 136 13.2239V26.776C136 29.0729 137.222 31.2125 139.189 32.3598L150.817 39.1411C152.78 40.2865 155.22 40.2861 157.183 39.1411L168.811 32.3598C170.778 31.2125 172 29.0729 172 26.776V13.2239C172 10.9271 170.778 8.78751 168.811 7.64017ZM168.91 26.776C168.91 27.9592 168.28 29.0613 167.267 29.6522L155.64 36.4335C154.628 37.0235 153.372 37.0235 152.36 36.4335L140.733 29.6522C139.72 29.0612 139.09 27.9592 139.09 26.776V13.2239C139.09 12.0409 139.72 10.9388 140.733 10.3478L152.36 3.56649C153.372 2.97649 154.629 2.97673 155.64 3.56649L167.267 10.3477C168.28 10.9388 168.91 12.0408 168.91 13.2239V26.776Z" fill="#445964"/>
<path d="M212.811 7.64017L201.183 0.858838C199.22 -0.286318 196.78 -0.28624 194.817 0.858838L183.189 7.64017C181.222 8.78743 180 10.927 180 13.2239V26.776C180 29.0729 181.222 31.2125 183.189 32.3598L194.817 39.1411C196.78 40.2865 199.22 40.2861 201.183 39.1411L212.811 32.3598C214.778 31.2125 216 29.0729 216 26.776V13.2239C216 10.9271 214.778 8.78751 212.811 7.64017ZM212.91 26.776C212.91 27.9592 212.28 29.0613 211.267 29.6522L199.64 36.4335C198.628 37.0235 197.372 37.0235 196.36 36.4335L184.733 29.6522C183.72 29.0612 183.09 27.9592 183.09 26.776V13.2239C183.09 12.0409 183.72 10.9388 184.733 10.3478L196.36 3.56649C197.372 2.97649 198.629 2.97673 199.64 3.56649L211.267 10.3477C212.28 10.9388 212.91 12.0408 212.91 13.2239V26.776Z" fill="#445964"/>
</g>
<defs>
<filter id="filter0_dd_702_13" x="0" y="0" width="220" height="48" filterUnits="userSpaceOnUse" color-interpolation-filters="sRGB">
<feFlood flood-opacity="0" result="BackgroundImageFix"/>
<feColorMatrix in="SourceAlpha" type="matrix" values="0 0 0 0 0 0 0 0 0 0 0 0 0 0 0 0 0 0 127 0" result="hardAlpha"/>
<feOffset dy="4"/>
<feGaussianBlur stdDeviation="2"/>
<feComposite in2="hardAlpha" operator="out"/>
<feColorMatrix type="matrix" values="0 0 0 0 0 0 0 0 0 0 0 0 0 0 0 0 0 0 0.25 0"/>
<feBlend mode="normal" in2="BackgroundImageFix" result="effect1_dropShadow_702_13"/>
<feColorMatrix in="SourceAlpha" type="matrix" values="0 0 0 0 0 0 0 0 0 0 0 0 0 0 0 0 0 0 127 0" result="hardAlpha"/>
<feOffset dy="4"/>
<feGaussianBlur stdDeviation="2"/>
<feComposite in2="hardAlpha" operator="out"/>
<feColorMatrix type="matrix" values="0 0 0 0 0 0 0 0 0 0 0 0 0 0 0 0 0 0 0.25 0"/>
<feBlend mode="normal" in2="effect1_dropShadow_702_13" result="effect2_dropShadow_702_13"/>
<feBlend mode="normal" in="SourceGraphic" in2="effect2_dropShadow_702_13" result="shape"/>
</filter>
</defs>
</svg>
